<svg width="584" height="80" viewBox="0 0 584 80" fill="none" xmlns="http://www.w3.org/2000/svg">
<rect width="584" height="80" fill="white"/>
<path opacity="0.25" d="M269.958 0.00179004C270.13 -0.0018929 270.273 -0.000437795 270.392 0.00846683C270.506 0.0170284 270.603 0.0309481 270.715 0.0651779C270.887 0.117716 271.039 0.19455 271.198 0.364909C271.549 0.741428 271.574 1.3005 271.286 1.70498C270.846 2.3247 270.02 2.82157 268.852 3.23991L268.583 3.33334L268.223 3.45646L267.807 3.59799L267.15 3.81822L266.208 4.12877L264.943 4.53679L263.517 4.98738L260.928 5.79122L255.781 7.37747L254.139 7.89045L252.716 8.34233L251.57 8.71403L250.61 9.03256C250.167 9.1814 249.733 9.32924 249.294 9.4813L248.376 9.80126L247.279 10.1862L245.266 10.8994L243.434 11.5561L241.947 12.095L239.634 12.9427L237.799 13.622L234.233 14.9556L229.59 16.709L218.346 20.9796L212.724 23.1233L209.21 24.4697L205.327 25.9644L202.687 26.9862L199.653 28.1666L196.756 29.3017L195.355 29.8539L193.532 30.5757L191.321 31.4567L190.456 31.803L188.758 32.4866L187.098 33.159L185.474 33.8219L183.88 34.4766L182.315 35.1248L180.774 35.7679L178.876 36.5669L177.375 37.204L175.887 37.841L174.408 38.4792L173.206 39.0014L171.806 39.6142L170.168 40.3367L169.141 40.7935L168.125 41.2485L167.12 41.7019L166.125 42.1535L165.142 42.6035C164.979 42.6784 164.816 42.7532 164.654 42.8279L163.687 43.2754L162.73 43.7213C162.572 43.7955 162.413 43.8696 162.256 43.9437L161.315 44.3872L160.386 44.8292L159.467 45.2697L158.559 45.7087L157.661 46.1461L156.774 46.5821L155.898 47.0167L155.032 47.4499L154.177 47.8817C154.036 47.9535 153.895 48.0253 153.754 48.0971L152.915 48.5268L152.086 48.9552L151.268 49.3823C151.133 49.4534 150.998 49.5244 150.863 49.5953L150.061 50.0205L149.27 50.4444L148.489 50.8671L147.718 51.2886L146.958 51.7089C146.833 51.7788 146.707 51.8487 146.582 51.9186L145.838 52.3372L145.104 52.7546L144.381 53.1709C144.022 53.3788 143.667 53.5863 143.315 53.7934L142.618 54.2071C142.502 54.2759 142.388 54.3447 142.273 54.4135L141.591 54.8256C141.478 54.8943 141.366 54.9628 141.254 55.0313L140.588 55.442C140.037 55.7838 139.497 56.1247 138.967 56.4645L138.337 56.872C138.233 56.9398 138.129 57.0076 138.026 57.0754L137.411 57.4815C136.801 57.8872 136.207 58.2916 135.628 58.6949L135.054 59.0978C134.959 59.1649 134.865 59.2319 134.771 59.2989L134.212 59.7007C133.566 60.169 132.941 60.6359 132.337 61.1015C129.653 63.1683 128.202 65.43 127.652 68.0267C127.342 69.4883 127.305 70.9082 127.499 72.7864L127.54 73.1557C127.547 73.2183 127.554 73.2814 127.562 73.345L127.611 73.733L127.666 74.1345L127.726 74.5503C127.737 74.6208 127.747 74.6919 127.758 74.7637L127.827 75.2024C127.902 75.6748 128.248 76.1601 128.988 76.6736L129.216 76.8303L129.361 76.9276L129.502 77.0194L129.639 77.1057L129.774 77.1867C129.797 77.1997 129.819 77.2126 129.841 77.2252L129.975 77.2985C129.997 77.3103 130.019 77.3219 130.041 77.3333L130.175 77.3992L130.31 77.4603C130.72 77.6367 131.164 77.7506 131.763 77.8184L131.969 77.8392L132.187 77.8568L132.419 77.8713L132.665 77.8827C132.707 77.8843 132.75 77.8859 132.794 77.8873L133.064 77.8944L133.351 77.8989L133.655 77.9008L134.027 77.9L134.325 77.8975L134.968 77.8877L135.678 77.8722L137.714 77.815L139.947 77.7414L141.511 77.6804L142.568 77.6324L143.224 77.5989L143.992 77.555L144.845 77.4989L145.634 77.4385L146.127 77.3955L146.713 77.3382L147.161 77.2895L147.592 77.2378L148.011 77.1831L148.317 77.14L148.718 77.0794L149.016 77.0317L149.404 76.9655L149.6 76.9302L150.078 76.8354L151.054 76.6301L154.583 75.8593L158.588 74.9816L159.615 74.7636L163.436 73.9656L165.913 73.442L168.572 72.8726L170.463 72.462L172.868 71.9315L174.883 71.4785L176.56 71.0951L178.202 70.7133L181.423 69.9557L183.546 69.4537L189.314 68.0789L194.596 66.8062L200.631 65.34L210.961 62.8101L224.429 59.4931L249.204 53.3497L296.139 41.6704L314.437 37.1427L323.24 34.9778L330.183 33.2777L330.905 33.1027L332.107 32.8142L334.729 32.1959L337.752 31.5002L340.134 30.9613L344.259 30.0402L387.043 20.5785L396.856 18.4254L403.498 16.9798L409.31 15.7261L414.552 14.6059L418.119 13.8494L422.502 12.9259C422.798 12.8637 423.096 12.8012 423.395 12.7385C424.09 12.5927 424.782 12.4501 425.474 12.31L426.365 12.1312L427.222 11.962L428.01 11.8086L428.803 11.6568L430.137 11.4065L431.491 11.1589L433.15 10.864L434.282 10.6679L435.436 10.4718L436.917 10.2259L438.443 9.97802L439.702 9.77781L440.996 9.57533L442.668 9.31832L444.054 9.10899L445.849 8.8419L448.103 8.51216L450.072 8.22859L452.977 7.81627L456.988 7.25607L463.56 6.34809L467.718 5.75176L469.59 5.4922L470.882 5.32094L471.572 5.23323L472.398 5.13243L472.881 5.07606L473.671 4.98784L474.457 4.90538L475.414 4.81181L476.255 4.73498L476.792 4.68896L477.469 4.63527L477.949 4.60093L478.407 4.5718L478.699 4.55534L478.981 4.54129L479.386 4.52482L479.644 4.51697L479.893 4.51166L480.133 4.50893L480.363 4.50883L480.585 4.51137L480.798 4.51661C480.833 4.51771 480.867 4.51893 480.901 4.52026L481.102 4.52961C481.134 4.5314 481.167 4.5333 481.199 4.53533L481.387 4.54888C481.417 4.55137 481.448 4.55398 481.478 4.55671L481.654 4.57454L481.822 4.59527L481.982 4.61894C482.087 4.6357 482.186 4.65445 482.281 4.67524L482.419 4.70794C482.464 4.71936 482.508 4.73129 482.551 4.74374L482.675 4.78266C482.716 4.79616 482.755 4.81018 482.793 4.82474L482.905 4.87003C482.923 4.87784 482.94 4.88579 482.958 4.89388L483.06 4.94404C483.554 5.20303 483.819 5.58558 483.945 6.11282L483.968 6.2202C483.972 6.23842 483.976 6.2568 483.979 6.27535L483.997 6.38859L484.028 6.64058L484.033 6.66803L484.045 6.72119L484.07 6.81633L484.199 7.24629L484.208 7.27933C484.44 8.12091 484.38 8.8227 483.798 9.49473C482.275 11.2498 480.82 12.4552 478.591 13.5858L478.28 13.7412L477.979 13.8879L477.777 13.9846L477.371 14.1757L476.957 14.3657L476.638 14.5085L476.311 14.6523L475.974 14.7979L475.505 14.9961L475.137 15.1487L474.487 15.413L473.784 15.6926L473.02 15.9909L471.652 16.5158L469.862 17.1916L467.117 18.2244L465.78 18.7367L464.98 19.0499L464.454 19.2599L464.056 19.4216L463.863 19.5009C463.606 19.6066 463.352 19.7127 463.093 19.8223L461.252 20.605L459.402 21.3973L458.005 21.9992L456.127 22.8139L454.225 23.6445L452.293 24.4934L450.327 25.3629L448.827 26.03L446.786 26.9412L444.165 28.1184L441.88 29.1499L441.493 29.3213L441.084 29.4976L440.653 29.6796L440.037 29.9334L439.542 30.1333L438.832 30.4148L437.607 30.8908L432.555 32.8159L431.829 33.0969L430.905 33.4592L430.245 33.722L429.611 33.9778L428.806 34.3086L428.231 34.5497L427.862 34.7072L427.503 34.8624L427.154 35.0154L426.815 35.1663L426.485 35.3153L426.009 35.5353L425.554 35.7517L425.261 35.8941L424.977 36.0353L424.702 36.1752L424.434 36.3141L424.174 36.4522L423.922 36.5894C423.881 36.6122 423.84 36.635 423.799 36.6578L423.558 36.7941L423.324 36.9299L423.087 37.0714L422.851 37.2171L422.628 37.3605L422.415 37.5016C422.381 37.5249 422.347 37.548 422.314 37.5711L422.12 37.7083C422.025 37.7763 421.936 37.8432 421.85 37.909L421.686 38.0391C421.633 38.082 421.582 38.1243 421.533 38.1661L421.391 38.29C420.849 38.7788 420.588 39.1874 420.6 39.4769C420.609 39.6863 420.77 39.9308 421.104 40.1973L421.209 40.2779C421.264 40.3185 421.323 40.3596 421.386 40.4011L421.518 40.4846L421.66 40.5692L421.813 40.6547C421.866 40.6834 421.921 40.7122 421.977 40.7412L422.153 40.8284C422.183 40.843 422.213 40.8576 422.244 40.8723L422.437 40.9606C422.502 40.9902 422.57 41.0198 422.64 41.0495L422.855 41.139C422.892 41.1539 422.929 41.1689 422.967 41.1839L423.199 41.274L423.444 41.3644C423.527 41.3946 423.613 41.4249 423.7 41.4551L423.968 41.546L424.249 41.637C424.297 41.6521 424.345 41.6673 424.394 41.6825L424.439 41.6957L424.54 41.7211C424.558 41.7252 424.576 41.7293 424.595 41.7333L424.718 41.7565L424.854 41.7783C424.878 41.7818 424.903 41.7853 424.928 41.7887L425.086 41.8085L425.259 41.827L425.447 41.8442L425.756 41.8677L426.099 41.8885L426.346 41.901L426.745 41.9177L427.947 41.9539L428.314 41.9636L429.058 41.9796C429.308 41.9842 429.559 41.9881 429.812 41.9913L430.575 41.9989C430.703 41.9998 430.832 42.0005 430.96 42.0011L431.736 42.0024L432.517 41.9996L433.305 41.9929L434.096 41.9821L434.89 41.9675L435.686 41.9491L436.483 41.9268C436.616 41.9228 436.748 41.9186 436.881 41.9143L437.677 41.8865C437.942 41.8767 438.206 41.8662 438.47 41.8551L439.26 41.8202C439.392 41.814 439.523 41.8078 439.654 41.8013L440.437 41.7611L441.214 41.7175L441.983 41.6705L442.744 41.6202L443.495 41.5666L444.235 41.5099C444.357 41.5001 444.479 41.4903 444.601 41.4803L445.323 41.4189C445.918 41.3665 446.5 41.3109 447.064 41.2522L447.733 41.1804C447.843 41.1682 447.952 41.1559 448.061 41.1435L448.703 41.0675C449.019 41.0288 449.327 40.9891 449.628 40.9483L450.238 40.8632L451.254 40.7153L452.588 40.5131L453.859 40.3148L455.733 40.0151L458.081 39.6304L460.087 39.2961L463.615 38.6987L468.791 37.8064L473.873 36.9175L482.566 35.3771L491.622 33.7537L497.342 32.72L512.378 29.9838L535.01 25.8458L536.358 25.6099L538.179 25.2956L540.024 24.9827L541.418 24.7495L543.289 24.4416L545.166 24.138L547.044 23.8397L548.45 23.6202L549.851 23.4047L551.244 23.1938L552.627 22.9879L553.542 22.8536L554.903 22.657L556.248 22.4665L557.134 22.3433L558.011 22.223L559.307 22.0488L560.579 21.8823L561.824 21.7239L562.637 21.623L563.437 21.5262L564.608 21.3885L565.745 21.2606L566.482 21.1808L567.201 21.1057L567.861 21.0392L569.046 20.9227L570.163 20.8166L571.219 20.7206L572.22 20.6346L573.172 20.5585L573.631 20.5241L574.302 20.4771L574.737 20.4487L575.165 20.4227L575.585 20.399L575.998 20.3777L576.607 20.35L577.206 20.3274L577.6 20.3153L578.186 20.3012L578.575 20.2945L579.156 20.2887L579.543 20.2875L579.932 20.2885L580.321 20.2916L580.911 20.3002L581.508 20.3136L581.912 20.325C582.573 20.3453 583.15 20.6169 583.28 21.3036L583.3 21.4224L583.312 21.4731L583.331 21.5343L583.358 21.6094L583.414 21.7551L583.515 22.0039C583.99 23.1867 583.944 24.096 582.905 24.9242L582.816 24.9943L582.637 25.1331L582.453 25.2703C582.422 25.2931 582.391 25.3158 582.36 25.3385L582.17 25.4743C582.138 25.4969 582.106 25.5195 582.073 25.5421L581.875 25.6775L581.67 25.8132L581.458 25.9498C581.422 25.9727 581.386 25.9956 581.349 26.0185L581.125 26.1572L580.892 26.2978L580.65 26.4409L580.397 26.5869L580.134 26.7362L579.859 26.8894L579.423 27.1275L578.957 27.3768L578.459 27.639L576.212 28.7974L575.752 29.0375L575.337 29.2574L574.933 29.476L574.652 29.6317C574.607 29.6573 574.561 29.6828 574.516 29.7082L574.254 29.8587L574.003 30.0057L573.764 30.1495C573.725 30.1732 573.687 30.1967 573.649 30.2201L573.428 30.3591L573.219 30.4949L573.021 30.6276C572.989 30.6494 572.957 30.6712 572.926 30.6928L572.745 30.821C572.716 30.8422 572.687 30.8632 572.659 30.8841L572.495 31.008C572.469 31.0284 572.443 31.0487 572.417 31.0689L572.27 31.1886C571.702 31.6622 571.395 32.0712 571.319 32.4355L571.313 32.4641L572.586 32.4823L574.469 32.5157L575.405 32.5273L575.914 32.5306L576.542 32.5305L577.123 32.5249L577.535 32.5169L577.931 32.5055L578.318 32.4905L578.699 32.4719L579.062 32.4501L579.4 32.4245L579.619 32.4045L579.837 32.3817L580.057 32.3558L580.281 32.3264L580.513 32.2931L580.757 32.2556L581.151 32.1907L581.436 32.141L582.83 31.8882L583.238 31.8187L583.695 31.7481L584 33.8312L583.649 33.885L583.224 33.9565L581.941 34.1895L581.478 34.2705L581.193 34.3179L580.925 34.3604L580.668 34.3983L580.421 34.432L580.18 34.4619C580.14 34.4665 580.1 34.4711 580.06 34.4755L579.821 34.5003L579.58 34.5222C579.54 34.5257 579.499 34.529 579.458 34.5322L579.207 34.5504L578.946 34.5666L578.68 34.581L578.28 34.5993L577.875 34.6137L577.458 34.6245L577.172 34.6297L576.573 34.6357L576.093 34.6364L575.404 34.6327L574.647 34.6238L571.611 34.5729L571.169 34.5683C571.095 34.5677 571.02 34.5663 570.947 34.5641L570.736 34.5551C570.702 34.5532 570.669 34.5511 570.638 34.5487C570.525 34.5404 570.428 34.5294 570.338 34.5127C570.258 34.4982 570.184 34.4797 570.104 34.4502C570.03 34.4226 569.956 34.388 569.879 34.3382C569.727 34.2401 569.593 34.1068 569.495 33.9075C568.846 32.5823 569.21 31.2807 570.333 30.1175C570.86 29.5716 571.544 29.0487 572.45 28.4836L572.744 28.3037C572.945 28.1827 573.155 28.0595 573.377 27.9335L573.717 27.7425L574.074 27.5467L574.342 27.4023L574.622 27.2529L575.241 26.9293L577.295 25.8712L577.934 25.5362L578.232 25.3775L578.653 25.1491L578.919 25.0028L579.295 24.7912L579.532 24.6548L579.758 24.5216L579.975 24.3913L580.183 24.2633L580.383 24.1374L580.574 24.0131L580.758 23.89C580.788 23.8695 580.818 23.8491 580.848 23.8287L581.022 23.7066C581.051 23.6863 581.079 23.666 581.108 23.6457L581.274 23.5237C581.301 23.5033 581.328 23.4829 581.355 23.4625L581.514 23.3397L581.659 23.2248C581.699 23.1875 581.704 23.1574 581.668 23.0581L581.642 22.9897L581.44 22.4895L581.412 22.4168L581.066 22.409L580.49 22.3991L579.919 22.3939L579.351 22.3934L578.974 22.3956L578.406 22.4031L577.834 22.4154L577.257 22.4326L576.868 22.4468L576.474 22.4633L575.873 22.4923L575.257 22.5264L574.625 22.5658L573.973 22.6104L573.527 22.6431L572.602 22.7156L571.63 22.7979L570.865 22.8661L569.795 22.9658L568.366 23.1046L567.432 23.1983L566.756 23.2688L565.712 23.3823L564.997 23.463L564.268 23.5476L563.525 23.6359L562.769 23.7279L561.612 23.8725L560.429 24.0247L559.222 24.1841L557.993 24.3502L556.745 24.5228L555.903 24.6413L554.627 24.8237L553.768 24.9483L552.469 25.1395L550.722 25.4018L549.402 25.6034L548.076 25.8089L546.304 26.0883L544.53 26.3728L543.153 26.5971C541.098 26.934 539.058 27.2782 537.068 27.6233L535.039 27.9809L511.632 32.2599L494.411 35.3898L485.62 36.9701L477.461 38.4224L472.644 39.2709L467.437 40.1779L463.454 40.8619L459.87 41.467L457.243 41.9022L455.392 42.2024L453.943 42.4327L453.048 42.5723L452.3 42.687L451.085 42.8681L450.218 42.9922C449.917 43.0344 449.607 43.0757 449.29 43.1159L448.645 43.1948L447.982 43.2709L447.301 43.3441C446.957 43.38 446.606 43.4148 446.249 43.4484L445.529 43.5141L444.795 43.5766C444.672 43.5868 444.548 43.5968 444.423 43.6067L443.671 43.6645C443.545 43.6739 443.418 43.6831 443.291 43.6922L442.522 43.7451C442.394 43.7536 442.265 43.762 442.135 43.7703L441.354 43.8181C441.092 43.8335 440.829 43.8483 440.565 43.8625L439.77 43.9034L438.97 43.9408L438.167 43.9745L437.36 44.0046C437.225 44.0093 437.091 44.0139 436.956 44.0183L436.148 44.0428L435.339 44.0634C435.205 44.0665 435.07 44.0695 434.936 44.0723L434.13 44.0871C433.861 44.0914 433.594 44.0951 433.327 44.098L432.528 44.1049L431.735 44.1077L430.948 44.1063L430.169 44.1007L429.398 44.0909L428.638 44.0768C428.512 44.0741 428.386 44.0712 428.261 44.0681L426.813 44.0267L426.503 44.0152L426.209 44.0025L425.932 43.9885L425.671 43.9729L425.424 43.9556L425.191 43.9363C425.116 43.9296 425.043 43.9225 424.973 43.9151L424.767 43.8915L424.573 43.8656C424.511 43.8565 424.45 43.8469 424.392 43.837L424.221 43.8056C424.166 43.7946 424.112 43.7832 424.061 43.7712L423.91 43.7337C423.862 43.7206 423.814 43.707 423.769 43.6928L423.602 43.6404L423.276 43.5344C422.796 43.3743 422.351 43.2089 421.942 43.0376L421.675 42.9225C419.623 42.0134 418.554 40.9346 418.497 39.5645C418.433 38.0495 419.628 36.73 421.858 35.3552L422.13 35.1899L422.376 35.0455L422.628 34.901L422.886 34.7564L423.152 34.6114L423.425 34.466L423.705 34.32L423.993 34.1732L424.289 34.0255L424.749 33.802L425.067 33.6514L425.394 33.4994L425.729 33.3458L426.251 33.1122L426.795 32.8742L427.17 32.7128L427.753 32.4665L428.155 32.2991L428.779 32.043L429.21 31.8686L430.107 31.5107L430.813 31.2335L431.547 30.9483L433.828 30.0771L436.894 28.9095L437.87 28.5308L438.579 28.2508L439.073 28.0526L439.685 27.8021L440.112 27.6232L440.515 27.4508L440.895 27.2841L441.137 27.1755L442.766 26.4399L444.887 25.4855L446.443 24.7883L448.476 23.8817L450.465 22.9991L452.901 21.9262L454.814 21.0893L456.702 20.2689L458.105 19.6631L459.963 18.866L461.35 18.275L462.568 17.759L463.255 17.4746L463.859 17.23L464.727 16.8873L465.982 16.4038L467.868 15.6908L470.323 14.7682L471.743 14.2273L472.683 13.8629L473.396 13.5817L474.053 13.3174L474.543 13.1158L475.007 12.9212L475.661 12.6386L475.972 12.4999L476.276 12.3621L476.77 12.1322L477.158 11.9463L477.447 11.8046C479.46 10.8088 480.728 9.79237 482.076 8.26492L482.207 8.11549C482.225 8.09425 482.234 8.08269 482.228 8.04045L482.219 7.99578L482.191 7.88825L482.128 7.67038L482.051 7.41296L482.02 7.30042L481.994 7.1979L481.971 7.09331L481.954 7.00159L481.94 6.91116L481.921 6.75467L481.872 6.74198L481.8 6.72531L481.75 6.71523L481.643 6.69649C481.624 6.69353 481.605 6.69065 481.586 6.68785L481.464 6.67203L481.333 6.65819L481.192 6.64633L481.041 6.6365L480.879 6.62872L480.708 6.623L480.525 6.61937L480.232 6.6179C480.198 6.618 480.164 6.61819 480.129 6.61848L479.914 6.62127L479.689 6.62624L479.329 6.63785L478.944 6.65451L478.533 6.6763L478.096 6.70331L477.632 6.73561L476.97 6.78705L476.621 6.8164L476.095 6.86301L475.137 6.95326L474.204 7.04817L473.427 7.1328L472.477 7.2434L471.311 7.38834L470.237 7.52938L468.652 7.74654L466.348 8.07393L462.546 8.61647L457.878 9.25816L454.903 9.67183L451.646 10.1307L449.881 10.3827L447.356 10.7484L446.145 10.9262L444.581 11.1588L442.701 11.443L440.898 11.7212L439.507 11.9402L437.825 12.2106L436.845 12.3715L435.252 12.6382L434.319 12.7978L433.099 13.0107L432.199 13.1707L431.017 13.3851L430.433 13.4929L429.563 13.6556L428.129 13.93L426.991 14.1532L425.575 14.4378L425.008 14.5536L424.123 14.7371L420.293 15.542L416.827 16.2749L411.989 17.3052L408.446 18.0652L402.938 19.2556L394.125 21.178L383.974 23.4108L353.075 30.2487L343.264 32.4184L339.384 33.2887L336.065 34.0472L333.563 34.6322L332.278 34.938L330.68 35.3234L321.227 37.6399L306.83 41.1897L286.822 46.1546L236.704 58.6241L225.23 61.4638L206.3 66.1213L195.193 68.828L190.436 69.9747L186.156 70.9978L183.114 71.7193L180.468 72.3435L177.862 72.9546L175.917 73.4024L174.205 73.7898L172.737 74.1171L170.607 74.5855L168.697 74.9993L166.355 75.5003L163.505 76.1024L159.457 76.9486L157.122 77.4563L152.053 78.5684L151.126 78.7669L150.382 78.9217L149.919 79.0122L149.568 79.0736L149.065 79.1562L148.554 79.233L148.03 79.3045L147.598 79.3582L147.266 79.3964L146.808 79.445L146.332 79.4909L145.835 79.5343L145.314 79.5755L144.484 79.6335L143.893 79.6698L142.945 79.7215L141.914 79.7701L140.793 79.8165L138.922 79.8832L136.624 79.9529L135.748 79.975L135.103 79.9881L134.362 79.9979L133.95 80L133.561 79.999L133.194 79.9946L132.96 79.9898L132.736 79.9834L132.52 79.9753L132.312 79.9656L132.111 79.954L131.824 79.9332L131.642 79.9169L131.466 79.8987L131.296 79.8784L131.131 79.856L130.973 79.8315L130.819 79.8048L130.67 79.7758L130.525 79.7446L130.384 79.7109L130.247 79.6748L130.113 79.6362L129.982 79.5951L129.854 79.5513L129.728 79.5049L129.603 79.4558L129.48 79.404L129.359 79.3492L129.238 79.2916L129.117 79.2311L128.936 79.1346L128.755 79.0312L128.632 78.9583L128.446 78.8429L128.319 78.7619L128.059 78.5895L127.857 78.4512L127.788 78.4033C126.607 77.5839 125.921 76.621 125.747 75.5336L125.71 75.2958L125.639 74.8321L125.575 74.3838L125.516 73.9498C125.506 73.8786 125.497 73.808 125.489 73.7379L125.439 73.3239C125.183 71.0811 125.21 69.3911 125.592 67.5904C126.247 64.4975 127.977 61.8019 131.052 59.4337C131.844 58.8238 132.669 58.2121 133.529 57.5984L134.107 57.189C134.788 56.7109 135.489 56.2316 136.211 55.7508L136.835 55.3382C137.779 54.7189 138.757 54.097 139.77 53.4722L140.45 53.0553C140.793 52.8466 141.139 52.6375 141.49 52.4282L142.196 52.0089L142.913 51.5887L143.64 51.1676L144.377 50.7454C144.501 50.6749 144.625 50.6044 144.749 50.5339L145.502 50.1102L146.266 49.6854L147.039 49.2595L147.824 48.8325L148.618 48.4043L149.423 47.975C149.694 47.8317 149.966 47.6882 150.239 47.5445L151.065 47.1127C151.204 47.0407 151.343 46.9686 151.483 46.8964L152.325 46.4628C152.466 46.3904 152.608 46.318 152.75 46.2455L153.608 45.8099L154.476 45.3731L155.356 44.9349L156.245 44.4953L157.146 44.0543L158.057 43.6119L158.979 43.168L159.912 42.7227L160.855 42.2759L161.809 41.8275L162.774 41.3776L163.75 40.9262L164.737 40.4731L165.734 40.0184L166.742 39.5621L167.761 39.1041L168.791 38.6444L169.832 38.1829L170.758 37.7748L171.951 37.2524L173.119 36.7433L174.291 36.2364L175.859 35.5624L177.439 34.8889L178.635 34.3832L179.841 33.8761L181.06 33.3668L182.707 32.6832L183.962 32.1661L185.665 31.4692L186.966 30.9402L188.737 30.2247L190.553 29.4962L191.946 28.9402L193.85 28.1846L195.811 27.4111L198.348 26.4164L200.988 25.3874L203.739 24.3209L207.2 22.9865L211.475 21.3471L216.701 19.3529L230.369 14.1627L233.978 12.8023L237.177 11.6072L239.477 10.757L241.262 10.104L242.802 9.54614L244.053 9.09677L245.302 8.65195L246.463 8.24162L247.641 7.82805L248.545 7.51294L249.564 7.16375L250.285 6.92162L251.157 6.63394L252.366 6.24396L254.042 5.71424L256.425 4.97424L261.691 3.35155L263.631 2.74415L238.362 6.25775L231.928 7.15991L225.807 8.02727L220.308 8.81781L215.578 9.50969L211.719 10.0841L209.199 10.4646L207.706 10.6922L205.008 11.1069L200.952 11.7378L196.557 12.4267L193.299 12.9409L189.188 13.5943L183.672 14.4791L177.965 15.4037L171.428 16.4724L160.319 18.3072L148.144 20.335L113.801 26.0807L104.426 27.5992L100.878 28.1862L98.9947 28.5055L97.0839 28.838L95.6719 29.0911L94.1855 29.3662L92.9367 29.6057L91.7391 29.8438L90.8646 30.0232L90.5626 30.0863C90.0603 30.1917 89.5632 30.2985 89.0652 30.4079L88.4667 30.5404L86.6758 30.9409L84.0332 31.5348L82.2927 31.928L80.563 32.3204L76.8093 33.1782L72.7994 34.1037L67.8521 35.2585L63.5394 36.2754L59.4527 37.2465L53.1061 38.7661L44.3829 40.8708L9.28135 49.3912L3.60187 50.7543L0.487988 51.4974L0 49.4494L4.64402 48.3401L15.225 45.7887L41.8315 39.3226L50.7336 37.1715L56.2768 35.8406L60.8591 34.7475L65.1802 33.7243L68.2862 32.9943L71.8016 32.1741L74.7514 31.4914L78.155 30.7101L81.0693 30.0466L84.9971 29.1599L88.613 28.3517L89.2169 28.2203L90.4306 27.9631L91.5114 27.7419L92.3016 27.5848L92.9482 27.4589L94.1184 27.2366L94.9903 27.0753L96.4606 26.8103L97.8361 26.569L99.7481 26.2416L102.341 25.8083L104.704 25.4206L114.58 23.8186L149.547 17.9662L162.95 15.737L170.263 14.5305L177.518 13.3434L183.852 12.3178L189.03 11.4876L191.823 11.0433L195.077 10.5286L198.935 9.92228L202.864 9.30887L204.887 8.99528L207.387 8.61116L211.088 8.05005L213.965 7.62028L218.615 6.93638L221.418 6.53005L226.674 5.77729L233.84 4.76503L243.709 3.38691L263.369 0.655372L263.823 0.594607L264.289 0.535564L264.77 0.47777L265.442 0.401831L266.156 0.32614L266.923 0.249571L268.414 0.110074L269.122 0.0469145L269.343 0.0299988C269.383 0.0273327 269.423 0.0247663 269.465 0.0223339L269.717 0.00962489C269.8 0.00610892 269.882 0.00340532 269.958 0.00179004Z" fill="#093F68"/>
</svg>
