<svg width="768" height="140" viewBox="0 0 768 140" fill="none" xmlns="http://www.w3.org/2000/svg">
<path opacity="0.25" d="M232.426 0.00313256C232.727 -0.00331258 232.978 -0.000766141 233.186 0.014817C233.386 0.0297997 233.554 0.0541592 233.75 0.114061C234.051 0.206004 234.319 0.340463 234.596 0.638591C235.21 1.2975 235.254 2.27588 234.751 2.98372C233.981 4.06823 232.535 4.93774 230.491 5.66984L230.021 5.83334L229.391 6.04881L228.661 6.29648L227.513 6.68188L225.864 7.22534L223.65 7.93938L221.154 8.72791L216.625 10.1346L207.616 12.9106L204.743 13.8083L202.253 14.5991L200.248 15.2496L198.568 15.807C197.792 16.0674 197.034 16.3262 196.265 16.5923L194.658 17.1522L192.739 17.8259L189.215 19.074L186.01 20.2231L183.407 21.1663L179.359 22.6498L176.148 23.8385L169.907 26.1724L161.782 29.2408L142.106 36.7142L132.267 40.4659L126.117 42.8219L119.322 45.4377L114.702 47.2259L109.394 49.2915L104.323 51.278L101.871 52.2443L98.6803 53.5074L94.811 55.0491L93.2978 55.6553L90.3259 56.8515L87.4217 58.0283L84.5787 59.1883L81.7907 60.3341L79.0513 61.4684L76.3541 62.5939L73.0323 63.9921L70.4069 65.1071L67.8031 66.2217L65.2145 67.3385L63.1112 68.2525L60.6601 69.3248L57.7933 70.5893L55.9962 71.3886L54.2182 72.185L52.4591 72.9783L50.719 73.7687L48.9979 74.5561C48.7126 74.6871 48.4281 74.818 48.1444 74.9488L46.4515 75.732L44.7776 76.5123C44.5002 76.6421 44.2235 76.7719 43.9477 76.9014L42.3019 77.6777L40.675 78.4511L39.0668 79.222L37.4774 79.9901L35.9067 80.7557L34.3546 81.5188L32.8213 82.2793L31.3065 83.0373L29.8103 83.7929C29.5625 83.9187 29.3155 84.0443 29.0692 84.1698L27.6009 84.9219L26.1511 85.6716L24.7198 86.419C24.4828 86.5434 24.2466 86.6677 24.0111 86.7919L22.6075 87.5359L21.2224 88.2777L19.8557 89.0174L18.5073 89.755L17.1773 90.4905C16.9572 90.613 16.7378 90.7353 16.5192 90.8575L15.2167 91.59L13.9324 92.3205L12.6664 93.0491C12.038 93.4129 11.4164 93.776 10.8016 94.1384L9.58115 94.8624C9.37924 94.9829 9.1781 95.1033 8.97772 95.2236L7.78448 95.9449C7.58713 96.0649 7.39052 96.1849 7.19467 96.3049L6.02859 97.0235C5.06441 97.6217 4.11906 98.2181 3.19246 98.813L2.08954 99.5259C1.90721 99.6447 1.72565 99.7633 1.54483 99.8819L0.468872 100.593C-0.598114 101.303 -1.63818 102.01 -2.65147 102.716L-3.65582 103.421C-3.82173 103.539 -3.98689 103.656 -4.15132 103.773L-5.12895 104.476C-6.25912 105.296 -7.35298 106.113 -8.41072 106.928C-13.1064 110.545 -15.6469 114.503 -16.6097 119.047C-17.1516 121.604 -17.2167 124.089 -16.8764 127.376L-16.8055 128.023C-16.7929 128.132 -16.7798 128.242 -16.7663 128.354L-16.6804 129.033L-16.5847 129.735L-16.4793 130.463C-16.4609 130.586 -16.4421 130.711 -16.4229 130.837L-16.3031 131.604C-16.1714 132.431 -15.5664 133.28 -14.2711 134.179L-13.8719 134.453L-13.6179 134.623L-13.3715 134.784L-13.1311 134.935L-12.8948 135.077C-12.8557 135.1 -12.8167 135.122 -12.7777 135.144L-12.5445 135.272C-12.5057 135.293 -12.4669 135.313 -12.428 135.333L-12.1939 135.449L-11.9571 135.556C-11.2407 135.864 -10.4636 136.064 -9.41455 136.182L-9.0545 136.219L-8.67256 136.249L-8.267 136.275L-7.83607 136.295C-7.76204 136.298 -7.68689 136.3 -7.61057 136.303L-7.13834 136.315L-6.63638 136.323L-6.103 136.326L-5.45232 136.325L-4.93135 136.321L-3.80649 136.303L-2.56364 136.276L0.999634 136.176L4.90688 136.048L7.64369 135.941L9.49457 135.857L10.6414 135.798L11.9854 135.721L13.4793 135.623L14.8587 135.517L15.7227 135.442L16.7485 135.342L17.5316 135.257L18.2867 135.166L19.0184 135.07L19.5548 134.995L20.2573 134.889L20.7772 134.805L21.4566 134.69L21.7995 134.628L22.6367 134.462L24.345 134.103L30.5199 132.754L37.5298 131.218L39.327 130.836L46.0128 129.44L50.3476 128.524L55.0015 127.527L58.3101 126.809L62.5183 125.88L66.0453 125.087L68.9794 124.416L71.8531 123.748L77.4896 122.423L81.2053 121.544L91.2989 119.138L100.544 116.911L111.104 114.345L129.182 109.918L152.751 104.113L196.107 93.362L278.243 72.9233L310.264 64.9997L325.67 61.2112L337.82 58.2359L339.084 57.9297L341.187 57.4249L345.776 56.3429L351.066 55.1254L355.235 54.1823L362.454 52.5704L437.326 36.0124L454.497 32.2445L466.122 29.7147L476.293 27.5208L485.466 25.5603L491.708 24.2364L499.378 22.6204C499.897 22.5114 500.418 22.4021 500.941 22.2924C502.157 22.0373 503.368 21.7877 504.58 21.5425L506.138 21.2297L507.638 20.9335L509.018 20.6651L510.406 20.3993L512.74 19.9613L515.109 19.528L518.013 19.0119L519.993 18.6689L522.013 18.3257L524.604 17.8952L527.276 17.4615L529.478 17.1112L531.743 16.7568L534.67 16.3071L537.094 15.9407L540.235 15.4733L544.18 14.8963L547.626 14.4L552.709 13.6785L559.728 12.6981L571.229 11.1092L578.507 10.0656L581.783 9.61135L584.043 9.31164L585.251 9.15815L586.697 8.98176L587.541 8.88311L588.924 8.72871L590.299 8.58442L591.974 8.42066L593.446 8.28622L594.385 8.20568L595.571 8.11172L596.411 8.05162L597.211 8.00064L597.723 7.97184L598.216 7.94726L598.925 7.91844L599.377 7.9047L599.813 7.89541L600.232 7.89064L600.636 7.89044L601.024 7.8949L601.397 7.90407C601.457 7.906 601.518 7.90812 601.577 7.91045L601.928 7.92681C601.985 7.92995 602.042 7.93328 602.098 7.93682L602.427 7.96053C602.48 7.9649 602.533 7.96947 602.586 7.97425L602.894 8.00545L603.188 8.04172L603.469 8.08314C603.651 8.11248 603.826 8.14529 603.991 8.18166L604.234 8.2389C604.312 8.25887 604.389 8.27975 604.464 8.30154L604.682 8.36965C604.753 8.39327 604.821 8.41782 604.888 8.4433L605.083 8.52255C605.115 8.53623 605.146 8.55014 605.176 8.56429L605.355 8.65207C606.22 9.1053 606.683 9.77476 606.904 10.6974L606.945 10.8853C606.951 10.9172 606.957 10.9494 606.963 10.9819L606.995 11.18L607.05 11.621L607.058 11.6691L607.079 11.7621L607.123 11.9286L607.347 12.681L607.364 12.7388C607.77 14.2116 607.666 15.4397 606.646 16.6158C603.982 19.6872 601.435 21.7966 597.535 23.7752L596.99 24.0471L596.462 24.3039L596.11 24.473L595.399 24.8076L594.674 25.14L594.117 25.3898L593.545 25.6415L592.954 25.8963L592.134 26.2431L591.49 26.5103L590.352 26.9728L589.122 27.4621L587.785 27.9841L585.391 28.9026L582.259 30.0853L577.455 31.8927L575.114 32.7893L573.715 33.3373L572.794 33.7049L572.098 33.9878L571.76 34.1266C571.31 34.3116 570.867 34.4972 570.413 34.689L567.191 36.0587L563.953 37.4453L561.509 38.4986L558.222 39.9242L554.893 41.3778L551.513 42.8634L548.073 44.3851L545.446 45.5525L541.876 47.1471L537.29 49.2072L533.291 51.0123L532.612 51.3124L531.898 51.6207L531.142 51.9394L530.065 52.3834L529.198 52.7333L527.956 53.2258L525.812 54.0589L516.971 57.4278L515.701 57.9197L514.084 58.5535L512.928 59.0135L511.819 59.4611L510.41 60.0401L509.405 60.4619L508.758 60.7377L508.129 61.0093L507.519 61.277L506.925 61.5411L506.349 61.8018L505.516 62.1868L504.719 62.5655L504.207 62.8147L503.71 63.0617L503.228 63.3066L502.759 63.5498L502.305 63.7913L501.864 64.0314C501.791 64.0714 501.72 64.1112 501.648 64.1511L501.226 64.3896L500.817 64.6274L500.403 64.8749L499.99 65.1299L499.598 65.3809L499.227 65.6277C499.167 65.6685 499.108 65.7091 499.049 65.7495L498.709 65.9896C498.545 66.1085 498.388 66.2255 498.238 66.3407L497.95 66.5684C497.857 66.6434 497.768 66.7176 497.682 66.7907L497.435 67.0075C496.487 67.8629 496.03 68.578 496.051 69.0846C496.066 69.451 496.348 69.8789 496.931 70.3452L497.115 70.4863C497.212 70.5573 497.315 70.6292 497.426 70.7018L497.656 70.848L497.905 70.9961L498.173 71.1458C498.266 71.1959 498.361 71.2464 498.46 71.297L498.767 71.4497C498.82 71.4753 498.873 71.5009 498.928 71.5265L499.264 71.6811C499.379 71.7328 499.498 71.7847 499.62 71.8367L499.996 71.9932C500.061 72.0194 500.126 72.0456 500.192 72.0718L500.599 72.2295L501.027 72.3877C501.173 72.4406 501.322 72.4935 501.475 72.5465L501.945 72.7055L502.436 72.8647C502.519 72.8912 502.604 72.9178 502.689 72.9443L502.768 72.9675L502.944 73.012C502.976 73.0192 503.008 73.0263 503.042 73.0332L503.256 73.0739L503.495 73.1121C503.537 73.1182 503.58 73.1243 503.624 73.1303L503.901 73.1649L504.204 73.1972L504.532 73.2273L505.073 73.2684L505.673 73.3049L506.106 73.3267L506.804 73.3559L508.907 73.4193L509.55 73.4362L510.851 73.4643C511.288 73.4724 511.728 73.4792 512.171 73.4848L513.507 73.498C513.731 73.4996 513.956 73.5009 514.181 73.5019L515.537 73.5042L516.906 73.4993L518.283 73.4875L519.668 73.4687L521.058 73.4431L522.451 73.4109L523.845 73.372C524.077 73.3649 524.31 73.3576 524.542 73.3501L525.935 73.3015C526.398 73.2842 526.861 73.2659 527.323 73.2465L528.706 73.1853C528.936 73.1746 529.165 73.1636 529.394 73.1524L530.764 73.082L532.124 73.0056L533.47 72.9233L534.801 72.8353L536.116 72.7416L537.411 72.6423C537.625 72.6253 537.839 72.608 538.051 72.5906L539.314 72.4831C540.357 72.3913 541.375 72.294 542.363 72.1914L543.533 72.0658C543.726 72.0444 543.917 72.0229 544.107 72.0011L545.229 71.8681C545.783 71.8004 546.323 71.7309 546.849 71.6596L547.917 71.5106L549.694 71.2517L552.03 70.8979L554.253 70.5509L557.532 70.0264L561.642 69.3533L565.153 68.7681L571.326 67.7228L580.385 66.1611L589.278 64.6057L604.491 61.91L620.338 59.0689L630.348 57.2599L656.661 52.4717L696.268 45.2302L698.626 44.8173L701.814 44.2673L705.041 43.7197L707.482 43.3117L710.755 42.7728L714.04 42.2414L717.327 41.7195L719.787 41.3353L722.238 40.9583L724.677 40.5892L727.097 40.2288L728.699 39.9938L731.081 39.6497L733.434 39.3165L734.984 39.1007L736.519 38.8903L738.788 38.5854L741.013 38.294L743.191 38.0168L744.615 37.8403L746.014 37.6708L748.065 37.4299L750.054 37.206L751.343 37.0664L752.602 36.935L753.757 36.8186L755.83 36.6148L757.786 36.429L759.634 36.261L761.385 36.1106L763.051 35.9774L763.855 35.9172L765.028 35.8349L765.79 35.7852L766.538 35.7397L767.273 35.6982L767.997 35.6609L769.063 35.6125L770.11 35.573L770.8 35.5517L771.826 35.527L772.506 35.5154L773.523 35.5053L774.201 35.5032L774.88 35.5049L775.563 35.5104L776.594 35.5254L777.64 35.5487L778.346 35.5688C779.503 35.6043 780.513 36.0795 780.74 37.2813L780.774 37.4892L780.797 37.5779L780.83 37.6851L780.876 37.8164L780.975 38.0715L781.151 38.5069C781.982 40.5767 781.902 42.1679 780.084 43.6174L779.928 43.7401L779.614 43.9829L779.293 44.2231C779.239 44.2629 779.185 44.3027 779.13 44.3424L778.798 44.5801C778.741 44.6196 778.685 44.6591 778.628 44.6986L778.281 44.9356L777.922 45.1732L777.551 45.4122C777.488 45.4522 777.425 45.4923 777.361 45.5325L776.969 45.7751L776.561 46.0212L776.137 46.2716L775.695 46.527L775.234 46.7884L774.753 47.0565L773.99 47.473L773.175 47.9094L772.303 48.3682L768.37 50.3954L767.566 50.8156L766.84 51.2004L766.133 51.583L765.642 51.8554C765.562 51.9003 765.482 51.945 765.404 51.9893L764.944 52.2526L764.505 52.51L764.088 52.7616C764.02 52.8031 763.953 52.8443 763.886 52.8853L763.499 53.1284L763.133 53.366L762.786 53.5982C762.73 53.6365 762.675 53.6746 762.621 53.7124L762.304 53.9368C762.253 53.9738 762.203 54.0105 762.153 54.0471L761.866 54.264C761.82 54.2997 761.775 54.3352 761.73 54.3705L761.472 54.5801C760.478 55.4089 759.942 56.1246 759.808 56.7622L759.798 56.8122L762.026 56.8441L765.321 56.9025L766.959 56.9228L767.85 56.9286L768.949 56.9284L769.966 56.9185L770.686 56.9045L771.38 56.8846L772.056 56.8584L772.723 56.8258L773.358 56.7878L773.95 56.7429L774.334 56.7079L774.715 56.668L775.099 56.6226L775.492 56.5711L775.899 56.5129L776.325 56.4473L777.014 56.3337L777.513 56.2468L779.953 55.8044L780.666 55.6828L781.466 55.5592L782 59.2046L781.385 59.2987L780.642 59.4239L778.398 59.8316L777.586 59.9734L777.088 60.0563L776.618 60.1306L776.169 60.197L775.737 60.256L775.314 60.3083C775.244 60.3164 775.175 60.3244 775.105 60.3321L774.687 60.3755L774.266 60.4139C774.195 60.4199 774.123 60.4257 774.051 60.4313L773.613 60.4632L773.155 60.4916L772.69 60.5168L771.991 60.5487L771.281 60.574L770.552 60.5929L770.052 60.6021L769.002 60.6125L768.163 60.6138L766.957 60.6072L765.632 60.5917L760.319 60.5025L759.546 60.4946C759.416 60.4935 759.286 60.4911 759.158 60.4872L758.787 60.4715C758.728 60.4681 758.671 60.4644 758.616 60.4603C758.419 60.4457 758.249 60.4264 758.091 60.3973C757.952 60.3718 757.823 60.3394 757.682 60.2878C757.552 60.2396 757.423 60.1789 757.288 60.0918C757.022 59.9202 756.787 59.6868 756.616 59.3381C755.48 57.0191 756.117 54.7412 758.082 52.7056C759.004 51.7502 760.203 50.8352 761.788 49.8463L762.302 49.5314C762.653 49.3197 763.022 49.1041 763.409 48.8837L764.005 48.5493L764.629 48.2068L765.098 47.954L765.589 47.6926L766.671 47.1262L770.267 45.2746L771.384 44.6884L771.905 44.4106L772.643 44.011L773.108 43.755L773.766 43.3847L774.181 43.1459L774.577 42.9129L774.957 42.6847L775.321 42.4608L775.669 42.2405L776.005 42.0229L776.327 41.8074C776.38 41.7717 776.432 41.736 776.484 41.7003L776.789 41.4866C776.839 41.451 776.889 41.4155 776.938 41.3799L777.229 41.1664C777.277 41.1308 777.324 41.0951 777.371 41.0594L777.65 40.8445L777.903 40.6435C777.974 40.5782 777.981 40.5255 777.919 40.3518L777.874 40.2319L777.52 39.3566L777.47 39.2293L776.865 39.2158L775.857 39.1985L774.858 39.1893L773.865 39.1884L773.204 39.1924L772.21 39.2054L771.21 39.2269L770.2 39.257L769.518 39.282L768.829 39.3108L767.777 39.3615L766.7 39.4212L765.594 39.4901L764.453 39.5681L763.672 39.6254L762.054 39.7524L760.352 39.8964L759.014 40.0157L757.141 40.1901L754.641 40.4331L753.006 40.5971L751.823 40.7204L749.996 40.9191L748.745 41.0603L747.469 41.2083L746.168 41.3629L744.846 41.5239L742.821 41.7769L740.75 42.0433L738.638 42.3221L736.488 42.6129L734.304 42.915L732.83 43.1222L730.597 43.4415L729.094 43.6596L726.821 43.9942L723.763 44.4531L721.453 44.806L719.134 45.1656L716.031 45.6545L712.927 46.1525L710.518 46.5448C706.921 47.1345 703.352 47.7369 699.869 48.3408L696.318 48.9666L655.356 56.4548L625.22 61.9321L609.835 64.6977L595.557 67.2392L587.127 68.7241L578.014 70.3113L571.044 71.5082L564.773 72.5673L560.174 73.3288L556.936 73.8542L554.401 74.2573L552.835 74.5014L551.524 74.7022L549.398 75.0192L547.882 75.2363C547.354 75.3103 546.812 75.3824 546.257 75.4528L545.13 75.5909L543.969 75.7241L542.777 75.8523C542.174 75.915 541.56 75.9758 540.936 76.0347L539.676 76.1496L538.391 76.2591C538.175 76.2769 537.958 76.2944 537.741 76.3118L536.424 76.4129C536.203 76.4293 535.981 76.4454 535.759 76.4613L534.414 76.5539C534.189 76.5688 533.963 76.5835 533.736 76.598L532.369 76.6817C531.911 76.7086 531.451 76.7345 530.989 76.7594L529.598 76.831L528.198 76.8964L526.791 76.9555L525.38 77.0081C525.144 77.0163 524.909 77.0243 524.673 77.032L523.258 77.0748L521.844 77.111C521.608 77.1165 521.373 77.1216 521.137 77.1265L519.727 77.1525C519.258 77.16 518.789 77.1663 518.322 77.1715L516.924 77.1835L515.536 77.1884L514.159 77.186L512.795 77.1763L511.447 77.1592L510.116 77.1345C509.896 77.1297 509.676 77.1246 509.458 77.1193L506.923 77.0468L506.38 77.0266L505.867 77.0044L505.381 76.9798L504.924 76.9525L504.492 76.9222L504.085 76.8886C503.954 76.8768 503.826 76.8644 503.702 76.8514L503.342 76.8102L503.003 76.7647C502.894 76.7488 502.788 76.7322 502.685 76.7147L502.387 76.6598C502.29 76.6406 502.197 76.6206 502.106 76.5996L501.843 76.534C501.758 76.5111 501.675 76.4873 501.595 76.4625L501.303 76.3707L500.733 76.1852C499.892 75.905 499.114 75.6157 498.398 75.3158L497.931 75.1143C494.34 73.5235 492.469 71.6356 492.369 69.2379C492.259 66.5866 494.349 64.2776 498.251 61.8716L498.728 61.5824L499.158 61.3296L499.598 61.0768L500.051 60.8237L500.516 60.57L500.993 60.3155L501.484 60.06L501.988 59.8031L502.507 59.5447L503.312 59.1535L503.867 58.8899L504.439 58.6239L505.026 58.3552L505.939 57.9463L506.891 57.5298L507.547 57.2475L508.568 56.8163L509.271 56.5234L510.364 56.0752L511.118 55.7701L512.688 55.1437L513.922 54.6586L515.207 54.1595L519.199 52.6349L524.564 50.5916L526.272 49.929L527.513 49.4389L528.377 49.092L529.448 48.6536L530.196 48.3405L530.901 48.039L531.566 47.7472L531.99 47.5572L534.841 46.2698L538.552 44.5996L541.275 43.3796L544.833 41.7929L548.315 40.2484L552.576 38.3708L555.924 36.9063L559.229 35.4706L561.684 34.4104L564.936 33.0155L567.362 31.9813L569.495 31.0782L570.696 30.5806L571.753 30.1525L573.272 29.5527L575.468 28.7066L578.77 27.4589L583.065 25.8444L585.549 24.8978L587.195 24.2601L588.442 23.768L589.592 23.3054L590.45 22.9526L591.262 22.612L592.406 22.1175L592.951 21.8749L593.483 21.6337L594.347 21.2314L595.026 20.906L595.532 20.658C599.056 18.9155 601.275 17.1367 603.633 14.4636L603.862 14.2021C603.894 14.1649 603.909 14.1447 603.899 14.0708L603.884 13.9926L603.835 13.8044L603.725 13.4232L603.589 12.9727L603.534 12.7757L603.49 12.5963L603.45 12.4133L603.419 12.2528L603.395 12.0945L603.361 11.8207L603.277 11.7985L603.149 11.7693L603.062 11.7516L602.875 11.7189C602.842 11.7137 602.809 11.7086 602.775 11.7037L602.563 11.6761L602.333 11.6518L602.086 11.6311L601.821 11.6139L601.539 11.6003L601.238 11.5902L600.919 11.5839L600.406 11.5813C600.346 11.5815 600.286 11.5818 600.225 11.5823L599.85 11.5872L599.455 11.5959L598.826 11.6162L598.152 11.6454L597.433 11.6835L596.668 11.7308L595.856 11.7873L594.698 11.8773L594.087 11.9287L593.167 12.0103L591.49 12.1682L589.857 12.3343L588.498 12.4824L586.834 12.6759L584.795 12.9296L582.914 13.1764L580.141 13.5564L576.109 14.1294L569.455 15.0788L561.286 16.2018L556.08 16.9257L550.38 17.7288L547.292 18.1698L542.873 18.8097L540.754 19.1209L538.016 19.5279L534.726 20.0253L531.572 20.5122L529.137 20.8954L526.194 21.3685L524.478 21.6501L521.691 22.1168L520.059 22.3961L517.923 22.7686L516.348 23.0487L514.28 23.4239L513.257 23.6126L511.736 23.8973L509.226 24.3776L507.235 24.7682L504.756 25.2661L503.765 25.4688L502.215 25.7899L495.513 27.1985L489.447 28.4811L480.981 30.284L474.781 31.6141L465.141 33.6973L449.719 37.0616L431.955 40.9689L377.881 52.9352L360.712 56.7321L353.922 58.2552L348.113 59.5826L343.735 60.6063L341.486 61.1415L338.69 61.8159L322.147 65.8698L296.952 72.082L261.939 80.7705L174.233 102.592L154.152 107.562L121.026 115.712L101.587 120.449L93.2628 122.456L85.7722 124.246L80.4503 125.509L75.8194 126.601L71.2581 127.67L67.8544 128.454L64.8583 129.132L62.2903 129.705L58.562 130.525L55.2202 131.249L51.1216 132.126L46.1338 133.179L39.0495 134.66L34.9632 135.548L26.0929 137.495L24.4712 137.842L23.1693 138.113L22.3579 138.271L21.7444 138.379L20.8633 138.523L19.9688 138.658L19.0522 138.783L18.297 138.877L17.7149 138.944L16.9142 139.029L16.0811 139.109L15.2114 139.185L14.3003 139.257L12.8464 139.359L11.8124 139.422L10.1529 139.513L8.34976 139.598L6.38765 139.679L3.11313 139.796L-0.908783 139.918L-2.44154 139.956L-3.57005 139.979L-4.86678 139.996L-5.58777 140L-6.26857 139.998L-6.91127 139.991L-7.3196 139.982L-7.71255 139.971L-8.09077 139.957L-8.45485 139.94L-8.80542 139.919L-9.30731 139.883L-9.62683 139.855L-9.93504 139.823L-10.2325 139.787L-10.5199 139.748L-10.7979 139.705L-11.067 139.658L-11.3279 139.608L-11.5813 139.553L-11.8276 139.494L-12.0676 139.431L-12.3019 139.363L-12.5311 139.291L-12.7558 139.215L-12.9766 139.134L-13.1943 139.048L-13.4093 138.957L-13.6223 138.861L-13.834 138.76L-14.0449 138.654L-14.3613 138.486L-14.6795 138.305L-14.8937 138.177L-15.2197 137.975L-15.441 137.833L-15.896 137.532L-16.2506 137.29L-16.3718 137.206C-18.4386 135.772 -19.6389 134.087 -19.9421 132.184L-20.0077 131.768L-20.1313 130.956L-20.2446 130.172L-20.3474 129.412C-20.3637 129.288 -20.3795 129.164 -20.3949 129.041L-20.4817 128.317C-20.9292 124.392 -20.8821 121.434 -20.2145 118.283C-19.0678 112.871 -16.0399 108.153 -10.6595 104.009C-9.27377 102.942 -7.82878 101.871 -6.32408 100.797L-5.31209 100.081C-4.12111 99.2442 -2.89395 98.4053 -1.63037 97.5638L-0.538391 96.8419C1.11298 95.7581 2.82463 94.6698 4.59706 93.5764L5.78769 92.8467C6.38751 92.4815 6.99409 92.1157 7.60745 91.7493L8.84323 91.0156L10.0971 90.2803L11.3692 89.5432L12.6594 88.8044C12.8759 88.6811 13.0932 88.5578 13.3113 88.4343L14.6288 87.6928L15.9646 86.9494L17.3187 86.2041L18.6911 85.4568L20.0819 84.7076L21.491 83.9562C21.9638 83.7054 22.4397 83.4543 22.9186 83.2028L24.3646 82.4473C24.6071 82.3212 24.8504 82.195 25.0945 82.0687L26.5682 81.3099C26.8154 81.1832 27.0633 81.0565 27.312 80.9296L28.8135 80.1674L30.3336 79.4029L31.8723 78.636L33.4296 77.8667L35.0056 77.095L36.6003 76.3208L38.2137 75.5441L39.8459 74.7647L41.4968 73.9828L43.1666 73.1982L44.8552 72.4109L46.5627 71.6208L48.2892 70.8279L50.0345 70.0322L51.7989 69.2336L53.5822 68.4321L55.3846 67.6276L57.2061 66.8201L58.8269 66.1059L60.9135 65.1917L62.959 64.3008L65.0086 63.4136L67.7534 62.2341L70.5188 61.0556L72.6107 60.1706L74.7215 59.2832L76.8543 58.392L79.7378 57.1956L81.9343 56.2906L84.9141 55.0712L87.1913 54.1453L90.2902 52.8933L93.4673 51.6184L95.9061 50.6454L99.2383 49.3231L102.669 47.9695L107.108 46.2286L111.728 44.428L116.543 42.5616L122.6 40.2264L130.081 37.3574L139.227 33.8676L163.146 24.7847L169.462 22.404L175.059 20.3126L179.084 18.8248L182.208 17.682L184.903 16.7057L187.093 15.9193L189.279 15.1409L191.31 14.4228L193.372 13.6991L194.953 13.1476L196.736 12.5366L197.998 12.1128L199.526 11.6094L201.64 10.9269L204.574 9.99993L208.744 8.70491L217.959 5.86522L221.354 4.80226L177.133 10.9511L165.875 12.5299L155.162 14.0477L145.539 15.4312L137.261 16.642L130.509 17.6472L126.099 18.3131L123.485 18.7113L118.763 19.4371L111.665 20.5411L103.974 21.7468L98.2741 22.6465L91.0798 23.79L81.4265 25.3384L71.4379 26.9565L59.9996 28.8268L40.5579 32.0376L19.2515 35.5862L-40.849 45.6411L-57.2553 48.2986L-63.4637 49.3258L-66.7592 49.8847L-70.1033 50.4666L-72.5742 50.9094L-75.1754 51.3909L-77.3607 51.8101L-79.4565 52.2266L-80.9869 52.5406L-81.5155 52.651C-82.3945 52.8355 -83.2644 53.0224 -84.136 53.2138L-85.1833 53.4457L-88.3173 54.1465L-92.9419 55.1859L-95.9878 55.874L-99.0148 56.5608L-105.584 58.0618L-112.601 59.6815L-121.259 61.7023L-128.806 63.4819L-135.958 65.1813L-147.064 67.8406L-162.33 71.5239L-223.758 86.4346L-233.697 88.82L-239.146 90.1204L-240 86.5365L-231.873 84.5952L-213.356 80.1302L-166.795 68.8146L-151.216 65.0501L-141.516 62.721L-133.497 60.8082L-125.935 59.0176L-120.499 57.74L-114.347 56.3047L-109.185 55.1099L-103.229 53.7426L-98.1287 52.5815L-91.255 51.0299L-84.9273 49.6155L-83.8705 49.3855L-81.7465 48.9354L-79.8551 48.5484L-78.4722 48.2733L-77.3406 48.053L-75.2928 47.6641L-73.767 47.3819L-71.194 46.9181L-68.7869 46.4957L-65.4408 45.9227L-60.9032 45.1645L-56.7675 44.486L-39.4845 41.6826L21.7079 31.4408L45.1628 27.5398L57.9597 25.4283L70.6564 23.351L81.7404 21.5561L90.8033 20.1033L95.6902 19.3258L101.385 18.425L108.136 17.364L115.013 16.2905L118.552 15.7417L122.927 15.0695L129.404 14.0876L134.438 13.3355L142.577 12.1387L147.481 11.4276L156.679 10.1103L169.221 8.3388L186.491 5.92709L220.895 1.1469L221.69 1.04056L222.506 0.937238L223.348 0.836098L224.523 0.703205L225.774 0.570746L227.115 0.43675L229.725 0.19263L230.963 0.0821004L231.35 0.0524979C231.42 0.0478323 231.491 0.043341 231.564 0.0390843L232.004 0.0168436C232.15 0.0106906 232.293 0.00595931 232.426 0.00313256Z" fill="#093F68"/>
</svg>
